<?xml version="1.0" encoding="UTF-8" standalone="no"?>
<!DOCTYPE svg PUBLIC "-//W3C//DTD SVG 1.1//EN"
 "http://www.w3.org/Graphics/SVG/1.1/DTD/svg11.dtd">
<!-- Generated by graphviz version 2.42.4 (0)
 -->
<!-- Title: liste Pages: 1 -->
<svg width="422pt" height="72pt"
 viewBox="0.00 0.00 422.00 72.00" xmlns="http://www.w3.org/2000/svg" xmlns:xlink="http://www.w3.org/1999/xlink">
<g id="graph0" class="graph" transform="scale(1 1) rotate(0) translate(4 68)">
<title>liste</title>
<polygon fill="white" stroke="transparent" points="-4,4 -4,-68 418,-68 418,4 -4,4"/>
<!-- tete -->
<g id="node1" class="node">
<title>tete</title>
<text text-anchor="middle" x="27" y="-14.3" font-family="Courrier" font-size="14.00">tête</text>
</g>
<!-- 0 -->
<g id="node2" class="node">
<title>0</title>
<ellipse fill="none" stroke="black" cx="117" cy="-18" rx="27" ry="18"/>
<text text-anchor="middle" x="117" y="-14.3" font-family="Courrier" font-size="14.00">a</text>
</g>
<!-- tete&#45;&gt;0 -->
<g id="edge1" class="edge">
<title>tete&#45;&gt;0</title>
<path fill="none" stroke="black" d="M54.4,-18C62.39,-18 71.31,-18 79.82,-18"/>
<polygon fill="black" stroke="black" points="79.92,-21.5 89.92,-18 79.92,-14.5 79.92,-21.5"/>
</g>
<!-- 1 -->
<g id="node3" class="node">
<title>1</title>
<ellipse fill="none" stroke="black" cx="207" cy="-46" rx="27" ry="18"/>
<text text-anchor="middle" x="207" y="-42.3" font-family="Courrier" font-size="14.00">b</text>
</g>
<!-- 0&#45;&gt;1 -->
<g id="edge2" class="edge">
<title>0&#45;&gt;1</title>
<path fill="none" stroke="black" d="M143.93,-20.03C154.33,-22.69 166.36,-26.47 177.05,-30.4"/>
<polygon fill="black" stroke="black" points="175.81,-33.68 186.4,-34.04 178.35,-27.15 175.81,-33.68"/>
</g>
<!-- 3 -->
<g id="node5" class="node">
<title>3</title>
<ellipse fill="none" stroke="black" cx="387" cy="-18" rx="27" ry="18"/>
<text text-anchor="middle" x="387" y="-14.3" font-family="Courrier" font-size="14.00">d</text>
</g>
<!-- 0&#45;&gt;3 -->
<g id="edge9" class="edge">
<title>0&#45;&gt;3</title>
<path fill="none" stroke="black" stroke-dasharray="1,5" d="M143.7,-13.82C191.72,-10.61 295.18,-10.41 350.08,-13.22"/>
<polygon fill="black" stroke="black" points="350.19,-16.74 360.38,-13.83 350.6,-9.75 350.19,-16.74"/>
</g>
<!-- 1&#45;&gt;0 -->
<g id="edge6" class="edge">
<title>1&#45;&gt;0</title>
<path fill="none" stroke="black" stroke-dasharray="1,5" d="M179.85,-43.91C169.57,-41.27 157.72,-37.56 147.16,-33.68"/>
<polygon fill="black" stroke="black" points="148.12,-30.29 137.53,-29.93 145.58,-36.82 148.12,-30.29"/>
</g>
<!-- 2 -->
<g id="node4" class="node">
<title>2</title>
<ellipse fill="none" stroke="black" cx="297" cy="-46" rx="27" ry="18"/>
<text text-anchor="middle" x="297" y="-42.3" font-family="Courrier" font-size="14.00">c</text>
</g>
<!-- 1&#45;&gt;2 -->
<g id="edge3" class="edge">
<title>1&#45;&gt;2</title>
<path fill="none" stroke="black" d="M232.51,-39.88C241.4,-39.27 251.62,-39.1 261.22,-39.38"/>
<polygon fill="black" stroke="black" points="261.16,-42.88 271.31,-39.86 261.49,-35.89 261.16,-42.88"/>
</g>
<!-- 2&#45;&gt;1 -->
<g id="edge7" class="edge">
<title>2&#45;&gt;1</title>
<path fill="none" stroke="black" stroke-dasharray="1,5" d="M271.31,-52.14C262.41,-52.74 252.18,-52.9 242.59,-52.61"/>
<polygon fill="black" stroke="black" points="242.67,-49.11 232.51,-52.12 242.33,-56.1 242.67,-49.11"/>
</g>
<!-- 2&#45;&gt;3 -->
<g id="edge4" class="edge">
<title>2&#45;&gt;3</title>
<path fill="none" stroke="black" d="M317.53,-34.07C327.07,-30.13 338.85,-26.07 349.94,-22.82"/>
<polygon fill="black" stroke="black" points="351.14,-26.12 359.85,-20.09 349.28,-19.37 351.14,-26.12"/>
</g>
<!-- 3&#45;&gt;0 -->
<g id="edge5" class="edge">
<title>3&#45;&gt;0</title>
<path fill="none" stroke="black" d="M360.38,-22.17C312.42,-25.39 208.96,-25.6 154.01,-22.78"/>
<polygon fill="black" stroke="black" points="153.88,-19.27 143.7,-22.18 153.48,-26.26 153.88,-19.27"/>
</g>
<!-- 3&#45;&gt;2 -->
<g id="edge8" class="edge">
<title>3&#45;&gt;2</title>
<path fill="none" stroke="black" stroke-dasharray="1,5" d="M366.4,-29.96C356.82,-33.91 344.98,-37.99 333.85,-41.24"/>
<polygon fill="black" stroke="black" points="332.64,-37.94 323.93,-43.97 334.5,-44.69 332.64,-37.94"/>
</g>
</g>
</svg>
