<?xml version="1.0" encoding="UTF-8" standalone="no"?>
<!DOCTYPE svg PUBLIC "-//W3C//DTD SVG 1.1//EN"
 "http://www.w3.org/Graphics/SVG/1.1/DTD/svg11.dtd">
<!-- Generated by graphviz version 2.40.1 (0)
 -->
<!-- Title: liste Pages: 1 -->
<svg width="692pt" height="44pt"
 viewBox="0.00 0.00 692.00 44.00" xmlns="http://www.w3.org/2000/svg" xmlns:xlink="http://www.w3.org/1999/xlink">
<g id="graph0" class="graph" transform="scale(1 1) rotate(0) translate(4 40)">
<title>liste</title>
<polygon fill="#ffffff" stroke="transparent" points="-4,4 -4,-40 688,-40 688,4 -4,4"/>
<!-- tete -->
<g id="node1" class="node">
<title>tete</title>
<text text-anchor="middle" x="27" y="-14.3" font-family="Courrier" font-size="14.00" fill="#000000">tête</text>
</g>
<!-- 0 -->
<g id="node2" class="node">
<title>0</title>
<ellipse fill="none" stroke="#000000" cx="117" cy="-18" rx="27" ry="18"/>
<text text-anchor="middle" x="117" y="-14.3" font-family="Courrier" font-size="14.00" fill="#000000">a</text>
</g>
<!-- tete&#45;&gt;0 -->
<g id="edge1" class="edge">
<title>tete&#45;&gt;0</title>
<path fill="none" stroke="#000000" d="M54.003,-18C62.0277,-18 70.9665,-18 79.5309,-18"/>
<polygon fill="#000000" stroke="#000000" points="79.7051,-21.5001 89.705,-18 79.705,-14.5001 79.7051,-21.5001"/>
</g>
<!-- 1 -->
<g id="node3" class="node">
<title>1</title>
<ellipse fill="none" stroke="#000000" cx="207" cy="-18" rx="27" ry="18"/>
<text text-anchor="middle" x="207" y="-14.3" font-family="Courrier" font-size="14.00" fill="#000000">b</text>
</g>
<!-- 0&#45;&gt;1 -->
<g id="edge2" class="edge">
<title>0&#45;&gt;1</title>
<path fill="none" stroke="#000000" d="M144.003,-18C152.0277,-18 160.9665,-18 169.5309,-18"/>
<polygon fill="#000000" stroke="#000000" points="169.7051,-21.5001 179.705,-18 169.705,-14.5001 169.7051,-21.5001"/>
</g>
<!-- 2 -->
<g id="node4" class="node">
<title>2</title>
<ellipse fill="none" stroke="#000000" cx="297" cy="-18" rx="27" ry="18"/>
<text text-anchor="middle" x="297" y="-14.3" font-family="Courrier" font-size="14.00" fill="#000000">c</text>
</g>
<!-- 1&#45;&gt;2 -->
<g id="edge3" class="edge">
<title>1&#45;&gt;2</title>
<path fill="none" stroke="#000000" d="M234.003,-18C242.0277,-18 250.9665,-18 259.5309,-18"/>
<polygon fill="#000000" stroke="#000000" points="259.7051,-21.5001 269.705,-18 259.705,-14.5001 259.7051,-21.5001"/>
</g>
<!-- 3 -->
<g id="node5" class="node">
<title>3</title>
<ellipse fill="none" stroke="#000000" cx="387" cy="-18" rx="27" ry="18"/>
<text text-anchor="middle" x="387" y="-14.3" font-family="Courrier" font-size="14.00" fill="#000000">d</text>
</g>
<!-- 2&#45;&gt;3 -->
<g id="edge4" class="edge">
<title>2&#45;&gt;3</title>
<path fill="none" stroke="#000000" d="M324.003,-18C332.0277,-18 340.9665,-18 349.5309,-18"/>
<polygon fill="#000000" stroke="#000000" points="349.7051,-21.5001 359.705,-18 349.705,-14.5001 349.7051,-21.5001"/>
</g>
<!-- 4 -->
<g id="node6" class="node">
<title>4</title>
<ellipse fill="none" stroke="#000000" cx="477" cy="-18" rx="27" ry="18"/>
<text text-anchor="middle" x="477" y="-14.3" font-family="Courrier" font-size="14.00" fill="#000000">e</text>
</g>
<!-- 3&#45;&gt;4 -->
<g id="edge5" class="edge">
<title>3&#45;&gt;4</title>
<path fill="none" stroke="#000000" d="M414.003,-18C422.0277,-18 430.9665,-18 439.5309,-18"/>
<polygon fill="#000000" stroke="#000000" points="439.7051,-21.5001 449.705,-18 439.705,-14.5001 439.7051,-21.5001"/>
</g>
<!-- 5 -->
<g id="node7" class="node">
<title>5</title>
<ellipse fill="none" stroke="#000000" cx="567" cy="-18" rx="27" ry="18"/>
<text text-anchor="middle" x="567" y="-14.3" font-family="Courrier" font-size="14.00" fill="#000000">f</text>
</g>
<!-- 4&#45;&gt;5 -->
<g id="edge6" class="edge">
<title>4&#45;&gt;5</title>
<path fill="none" stroke="#000000" d="M504.003,-18C512.0277,-18 520.9665,-18 529.5309,-18"/>
<polygon fill="#000000" stroke="#000000" points="529.7051,-21.5001 539.705,-18 529.705,-14.5001 529.7051,-21.5001"/>
</g>
<!-- null01 -->
<g id="node8" class="node">
<title>null01</title>
<text text-anchor="middle" x="657" y="-14.3" font-family="Courrier" font-size="14.00" fill="#000000">null</text>
</g>
<!-- 5&#45;&gt;null01 -->
<g id="edge7" class="edge">
<title>5&#45;&gt;null01</title>
<path fill="none" stroke="#000000" d="M594.003,-18C602.0277,-18 610.9665,-18 619.5309,-18"/>
<polygon fill="#000000" stroke="#000000" points="619.7051,-21.5001 629.705,-18 619.705,-14.5001 619.7051,-21.5001"/>
</g>
</g>
</svg>
