<?xml version="1.0" encoding="UTF-8" standalone="no"?>
<!DOCTYPE svg PUBLIC "-//W3C//DTD SVG 1.1//EN"
 "http://www.w3.org/Graphics/SVG/1.1/DTD/svg11.dtd">
<!-- Generated by graphviz version 2.42.4 (0)
 -->
<!-- Title: liste Pages: 1 -->
<svg width="152pt" height="80pt"
 viewBox="0.00 0.00 152.00 80.00" xmlns="http://www.w3.org/2000/svg" xmlns:xlink="http://www.w3.org/1999/xlink">
<g id="graph0" class="graph" transform="scale(1 1) rotate(0) translate(4 76)">
<title>liste</title>
<polygon fill="white" stroke="transparent" points="-4,4 -4,-76 148,-76 148,4 -4,4"/>
<!-- tete -->
<g id="node1" class="node">
<title>tete</title>
<text text-anchor="middle" x="27" y="-14.3" font-family="Courrier" font-size="14.00">tête</text>
</g>
<!-- 0 -->
<g id="node2" class="node">
<title>0</title>
<ellipse fill="none" stroke="black" cx="117" cy="-18" rx="27" ry="18"/>
<text text-anchor="middle" x="117" y="-14.3" font-family="Courrier" font-size="14.00">a</text>
</g>
<!-- tete&#45;&gt;0 -->
<g id="edge1" class="edge">
<title>tete&#45;&gt;0</title>
<path fill="none" stroke="black" d="M54.4,-18C62.39,-18 71.31,-18 79.82,-18"/>
<polygon fill="black" stroke="black" points="79.92,-21.5 89.92,-18 79.92,-14.5 79.92,-21.5"/>
</g>
<!-- 0&#45;&gt;0 -->
<g id="edge2" class="edge">
<title>0&#45;&gt;0</title>
<path fill="none" stroke="black" d="M108.97,-35.41C107.47,-45.09 110.14,-54 117,-54 121.28,-54 123.94,-50.52 124.96,-45.54"/>
<polygon fill="black" stroke="black" points="128.46,-45.44 125.03,-35.41 121.46,-45.38 128.46,-45.44"/>
</g>
<!-- 0&#45;&gt;0 -->
<g id="edge3" class="edge">
<title>0&#45;&gt;0</title>
<path fill="none" stroke="black" stroke-dasharray="1,5" d="M104.34,-34.03C95.91,-51.75 100.12,-72 117,-72 130.84,-72 136.17,-58.37 132.98,-43.7"/>
<polygon fill="black" stroke="black" points="136.22,-42.35 129.66,-34.03 129.6,-44.63 136.22,-42.35"/>
</g>
</g>
</svg>
