<?xml version="1.0" encoding="UTF-8" standalone="no"?>
<!DOCTYPE svg PUBLIC "-//W3C//DTD SVG 1.1//EN"
 "http://www.w3.org/Graphics/SVG/1.1/DTD/svg11.dtd">
<!-- Generated by graphviz version 2.42.4 (0)
 -->
<!-- Title: liste Pages: 1 -->
<svg width="242pt" height="49pt"
 viewBox="0.00 0.00 242.00 49.17" xmlns="http://www.w3.org/2000/svg" xmlns:xlink="http://www.w3.org/1999/xlink">
<g id="graph0" class="graph" transform="scale(1 1) rotate(0) translate(4 45.17)">
<title>liste</title>
<polygon fill="white" stroke="transparent" points="-4,4 -4,-45.17 238,-45.17 238,4 -4,4"/>
<!-- tete -->
<g id="node1" class="node">
<title>tete</title>
<text text-anchor="middle" x="27" y="-16.88" font-family="Courrier" font-size="14.00">tête</text>
</g>
<!-- 0 -->
<g id="node2" class="node">
<title>0</title>
<ellipse fill="none" stroke="black" cx="117" cy="-20.58" rx="27" ry="18"/>
<text text-anchor="middle" x="117" y="-16.88" font-family="Courrier" font-size="14.00">a</text>
</g>
<!-- tete&#45;&gt;0 -->
<g id="edge1" class="edge">
<title>tete&#45;&gt;0</title>
<path fill="none" stroke="black" d="M54.4,-20.58C62.39,-20.58 71.31,-20.58 79.82,-20.58"/>
<polygon fill="black" stroke="black" points="79.92,-24.08 89.92,-20.58 79.92,-17.08 79.92,-24.08"/>
</g>
<!-- 1 -->
<g id="node3" class="node">
<title>1</title>
<ellipse fill="none" stroke="black" cx="207" cy="-20.58" rx="27" ry="18"/>
<text text-anchor="middle" x="207" y="-16.88" font-family="Courrier" font-size="14.00">b</text>
</g>
<!-- 0&#45;&gt;1 -->
<g id="edge2" class="edge">
<title>0&#45;&gt;1</title>
<path fill="none" stroke="black" d="M131.75,-5.4C145.31,0.15 166.3,1.14 182.51,-2.43"/>
<polygon fill="black" stroke="black" points="181.76,-5.86 192.35,-5.44 183.81,0.83 181.76,-5.86"/>
</g>
<!-- 0&#45;&gt;1 -->
<g id="edge3" class="edge">
<title>0&#45;&gt;1</title>
<path fill="none" stroke="black" stroke-dasharray="1,5" d="M142.51,-14.46C151.4,-13.85 161.62,-13.69 171.22,-13.97"/>
<polygon fill="black" stroke="black" points="171.16,-17.47 181.31,-14.45 171.49,-10.48 171.16,-17.47"/>
</g>
<!-- 1&#45;&gt;0 -->
<g id="edge4" class="edge">
<title>1&#45;&gt;0</title>
<path fill="none" stroke="black" d="M181.31,-26.72C172.41,-27.32 162.18,-27.48 152.59,-27.19"/>
<polygon fill="black" stroke="black" points="152.67,-23.69 142.51,-26.71 152.33,-30.69 152.67,-23.69"/>
</g>
<!-- 1&#45;&gt;0 -->
<g id="edge5" class="edge">
<title>1&#45;&gt;0</title>
<path fill="none" stroke="black" stroke-dasharray="1,5" d="M192.35,-35.73C178.82,-41.3 157.83,-42.31 141.6,-38.76"/>
<polygon fill="black" stroke="black" points="142.34,-35.33 131.75,-35.77 140.3,-42.02 142.34,-35.33"/>
</g>
</g>
</svg>
