<?xml version="1.0" encoding="UTF-8" standalone="no"?>
<!DOCTYPE svg PUBLIC "-//W3C//DTD SVG 1.0//EN" "http://www.w3.org/TR/2001/PR-SVG-20010719/DTD/svg10.dtd">
<svg width="28cm" height="13cm" viewBox="434 272 543 245" xmlns="http://www.w3.org/2000/svg" xmlns:xlink="http://www.w3.org/1999/xlink">
  <g>
    <rect style="fill: #ffffff" x="435" y="388" width="189.75" height="28"/>
    <rect style="fill: none; fill-opacity:0; stroke-width: 2; stroke: #000000" x="435" y="388" width="189.75" height="28"/>
    <text font-size="16" style="fill: #000000;text-anchor:middle;font-family:sans-serif;font-style:normal;font-weight:700" x="529.875" y="407">ListeChaineeDouble</text>
    <rect style="fill: #ffffff" x="435" y="416" width="189.75" height="36"/>
    <rect style="fill: none; fill-opacity:0; stroke-width: 2; stroke: #000000" x="435" y="416" width="189.75" height="36"/>
    <text font-size="12.8" style="fill: #000000;text-anchor:start;font-family:monospace;font-style:normal;font-weight:normal" x="438" y="430"> int taille</text>
    <text font-size="12.8" style="fill: #000000;text-anchor:start;font-family:monospace;font-style:normal;font-weight:normal" x="438" y="446"> MaillonDouble tete</text>
    <rect style="fill: #ffffff" x="435" y="452" width="189.75" height="8"/>
    <rect style="fill: none; fill-opacity:0; stroke-width: 2; stroke: #000000" x="435" y="452" width="189.75" height="8"/>
  </g>
  <g>
    <rect style="fill: #ffffff" x="474.5" y="273.3" width="110.1" height="28"/>
    <rect style="fill: none; fill-opacity:0; stroke-width: 2; stroke: #000000" x="474.5" y="273.3" width="110.1" height="28"/>
    <text font-size="16" style="fill: #000000;text-anchor:middle;font-family:sans-serif;font-style:italic;font-weight:700" x="529.55" y="292.3">Liste</text>
    <rect style="fill: #ffffff" x="474.5" y="301.3" width="110.1" height="20"/>
    <rect style="fill: none; fill-opacity:0; stroke-width: 2; stroke: #000000" x="474.5" y="301.3" width="110.1" height="20"/>
    <text font-size="12.8" style="fill: #000000;text-anchor:start;font-family:monospace;font-style:normal;font-weight:normal" x="477.5" y="315.3"> int taille()</text>
  </g>
  <g>
    <polyline style="fill: none; fill-opacity:0; stroke-width: 2; stroke: #000000" points="529.55,340.542 529.55,362.649 529.875,362.649 529.875,386.991 "/>
    <polygon style="fill: #ffffff" points="537.55,340.542 529.55,324.542 521.55,340.542 "/>
    <polygon style="fill: none; fill-opacity:0; stroke-width: 2; stroke: #000000" points="537.55,340.542 529.55,324.542 521.55,340.542 "/>
  </g>
  <g>
    <rect style="fill: #ffffff" x="696.4" y="427.9" width="194.8" height="28"/>
    <rect style="fill: none; fill-opacity:0; stroke-width: 2; stroke: #000000" x="696.4" y="427.9" width="194.8" height="28"/>
    <text font-size="16" style="fill: #000000;text-anchor:middle;font-family:sans-serif;font-style:normal;font-weight:700" x="793.8" y="446.9">MaillonDouble</text>
    <rect style="fill: #ffffff" x="696.4" y="455.9" width="194.8" height="52"/>
    <rect style="fill: none; fill-opacity:0; stroke-width: 2; stroke: #000000" x="696.4" y="455.9" width="194.8" height="52"/>
    <text font-size="12.8" style="fill: #000000;text-anchor:start;font-family:monospace;font-style:normal;font-weight:normal" x="699.4" y="469.9"> Object valeur</text>
    <text font-size="12.8" style="fill: #000000;text-anchor:start;font-family:monospace;font-style:normal;font-weight:normal" x="699.4" y="485.9"> MaillonDouble precedent</text>
    <text font-size="12.8" style="fill: #000000;text-anchor:start;font-family:monospace;font-style:normal;font-weight:normal" x="699.4" y="501.9"> MaillonDouble suivant</text>
    <rect style="fill: #ffffff" x="696.4" y="507.9" width="194.8" height="8"/>
    <rect style="fill: none; fill-opacity:0; stroke-width: 2; stroke: #000000" x="696.4" y="507.9" width="194.8" height="8"/>
  </g>
  <g>
    <polyline style="fill: none; fill-opacity:0; stroke-width: 2; stroke: #000000" points="649.922,442 667.575,442 667.575,441.9 696.4,441.9 "/>
    <polygon style="fill: #ffffff" points="624.75,442 638.75,437.2 652.75,442 638.75,446.8 "/>
    <polygon style="fill: none; fill-opacity:0; stroke-width: 2; stroke: #000000" points="624.75,442 638.75,437.2 652.75,442 638.75,446.8 "/>
    <text font-size="12.7998" style="fill: #000000;text-anchor:start;font-family:monospace;font-style:normal;font-weight:normal" x="669.575" y="437.95"/>
    <text font-size="12.7998" style="fill: #000000;text-anchor:start;font-family:monospace;font-style:normal;font-weight:normal" x="656.75" y="438"/>
    <text font-size="12.7998" style="fill: #000000;text-anchor:end;font-family:monospace;font-style:normal;font-weight:normal" x="692.4" y="437.9"/>
  </g>
  <g>
    <polyline style="fill: none; fill-opacity:0; stroke-width: 2; stroke: #000000" points="916.372,481.9 947,481.9 947,441.9 891.2,441.9 "/>
    <polygon style="fill: #ffffff" points="891.2,481.9 905.2,477.1 919.2,481.9 905.2,486.7 "/>
    <polygon style="fill: none; fill-opacity:0; stroke-width: 2; stroke: #000000" points="891.2,481.9 905.2,477.1 919.2,481.9 905.2,486.7 "/>
    <text font-size="12.7998" style="fill: #000000;text-anchor:start;font-family:monospace;font-style:normal;font-weight:normal" x="949" y="457.9"/>
    <text font-size="12.7998" style="fill: #000000;text-anchor:start;font-family:monospace;font-style:normal;font-weight:normal" x="923.2" y="477.9"/>
    <text font-size="12.7998" style="fill: #000000;text-anchor:start;font-family:monospace;font-style:normal;font-weight:normal" x="895.2" y="437.9"/>
  </g>
  <g>
    <polyline style="fill: none; fill-opacity:0; stroke-width: 2; stroke: #000000" points="916.372,497.9 975,497.9 975,441.9 891.2,441.9 "/>
    <polygon style="fill: #ffffff" points="891.2,497.9 905.2,493.1 919.2,497.9 905.2,502.7 "/>
    <polygon style="fill: none; fill-opacity:0; stroke-width: 2; stroke: #000000" points="891.2,497.9 905.2,493.1 919.2,497.9 905.2,502.7 "/>
    <text font-size="12.7998" style="fill: #000000;text-anchor:start;font-family:monospace;font-style:normal;font-weight:normal" x="977" y="465.9"/>
    <text font-size="12.7998" style="fill: #000000;text-anchor:start;font-family:monospace;font-style:normal;font-weight:normal" x="923.2" y="493.9"/>
    <text font-size="12.7998" style="fill: #000000;text-anchor:start;font-family:monospace;font-style:normal;font-weight:normal" x="895.2" y="437.9"/>
  </g>
</svg>
