<?xml version="1.0" encoding="UTF-8" standalone="no"?>
<!DOCTYPE svg PUBLIC "-//W3C//DTD SVG 1.1//EN"
 "http://www.w3.org/Graphics/SVG/1.1/DTD/svg11.dtd">
<!-- Generated by graphviz version 2.42.4 (0)
 -->
<!-- Title: arbre Pages: 1 -->
<svg width="314pt" height="476pt"
 viewBox="0.00 0.00 314.00 476.00" xmlns="http://www.w3.org/2000/svg" xmlns:xlink="http://www.w3.org/1999/xlink">
<g id="graph0" class="graph" transform="scale(1 1) rotate(0) translate(4 472)">
<title>arbre</title>
<polygon fill="white" stroke="transparent" points="-4,4 -4,-472 310,-472 310,4 -4,4"/>
<!-- 5 -->
<g id="node1" class="node">
<title>5</title>
<ellipse fill="none" stroke="black" cx="63" cy="-90" rx="27" ry="18"/>
<text text-anchor="middle" x="63" y="-86.3" font-family="Courrier" font-size="14.00">1</text>
</g>
<!-- null06 -->
<g id="node12" class="node">
<title>null06</title>
<text text-anchor="middle" x="27" y="-14.3" font-family="Courrier" font-size="14.00">null</text>
</g>
<!-- 5&#45;&gt;null06 -->
<g id="edge11" class="edge">
<title>5&#45;&gt;null06</title>
<path fill="none" stroke="black" d="M54.65,-72.76C50.46,-64.61 45.27,-54.53 40.53,-45.31"/>
<polygon fill="black" stroke="black" points="43.49,-43.42 35.81,-36.12 37.27,-46.62 43.49,-43.42"/>
</g>
<!-- null07 -->
<g id="node13" class="node">
<title>null07</title>
<text text-anchor="middle" x="99" y="-14.3" font-family="Courrier" font-size="14.00">null</text>
</g>
<!-- 5&#45;&gt;null07 -->
<g id="edge12" class="edge">
<title>5&#45;&gt;null07</title>
<path fill="none" stroke="black" d="M71.35,-72.76C75.54,-64.61 80.73,-54.53 85.47,-45.31"/>
<polygon fill="black" stroke="black" points="88.73,-46.62 90.19,-36.12 82.51,-43.42 88.73,-46.62"/>
</g>
<!-- 4 -->
<g id="node2" class="node">
<title>4</title>
<ellipse fill="none" stroke="black" cx="99" cy="-162" rx="27" ry="18"/>
<text text-anchor="middle" x="99" y="-158.3" font-family="Courrier" font-size="14.00">2</text>
</g>
<!-- 4&#45;&gt;5 -->
<g id="edge10" class="edge">
<title>4&#45;&gt;5</title>
<path fill="none" stroke="black" d="M90.65,-144.76C86.29,-136.28 80.85,-125.71 75.96,-116.2"/>
<polygon fill="black" stroke="black" points="78.99,-114.44 71.3,-107.15 72.77,-117.64 78.99,-114.44"/>
</g>
<!-- null05 -->
<g id="node11" class="node">
<title>null05</title>
<text text-anchor="middle" x="135" y="-86.3" font-family="Courrier" font-size="14.00">null</text>
</g>
<!-- 4&#45;&gt;null05 -->
<g id="edge9" class="edge">
<title>4&#45;&gt;null05</title>
<path fill="none" stroke="black" d="M107.35,-144.76C111.54,-136.61 116.73,-126.53 121.47,-117.31"/>
<polygon fill="black" stroke="black" points="124.73,-118.62 126.19,-108.12 118.51,-115.42 124.73,-118.62"/>
</g>
<!-- 3 -->
<g id="node3" class="node">
<title>3</title>
<ellipse fill="none" stroke="black" cx="135" cy="-234" rx="27" ry="18"/>
<text text-anchor="middle" x="135" y="-230.3" font-family="Courrier" font-size="14.00">3</text>
</g>
<!-- 3&#45;&gt;4 -->
<g id="edge8" class="edge">
<title>3&#45;&gt;4</title>
<path fill="none" stroke="black" d="M126.65,-216.76C122.29,-208.28 116.85,-197.71 111.96,-188.2"/>
<polygon fill="black" stroke="black" points="114.99,-186.44 107.3,-179.15 108.77,-189.64 114.99,-186.44"/>
</g>
<!-- null04 -->
<g id="node10" class="node">
<title>null04</title>
<text text-anchor="middle" x="171" y="-158.3" font-family="Courrier" font-size="14.00">null</text>
</g>
<!-- 3&#45;&gt;null04 -->
<g id="edge7" class="edge">
<title>3&#45;&gt;null04</title>
<path fill="none" stroke="black" d="M143.35,-216.76C147.54,-208.61 152.73,-198.53 157.47,-189.31"/>
<polygon fill="black" stroke="black" points="160.73,-190.62 162.19,-180.12 154.51,-187.42 160.73,-190.62"/>
</g>
<!-- 2 -->
<g id="node4" class="node">
<title>2</title>
<ellipse fill="none" stroke="black" cx="171" cy="-306" rx="27" ry="18"/>
<text text-anchor="middle" x="171" y="-302.3" font-family="Courrier" font-size="14.00">4</text>
</g>
<!-- 2&#45;&gt;3 -->
<g id="edge6" class="edge">
<title>2&#45;&gt;3</title>
<path fill="none" stroke="black" d="M162.65,-288.76C158.29,-280.28 152.85,-269.71 147.96,-260.2"/>
<polygon fill="black" stroke="black" points="150.99,-258.44 143.3,-251.15 144.77,-261.64 150.99,-258.44"/>
</g>
<!-- null03 -->
<g id="node9" class="node">
<title>null03</title>
<text text-anchor="middle" x="207" y="-230.3" font-family="Courrier" font-size="14.00">null</text>
</g>
<!-- 2&#45;&gt;null03 -->
<g id="edge5" class="edge">
<title>2&#45;&gt;null03</title>
<path fill="none" stroke="black" d="M179.35,-288.76C183.54,-280.61 188.73,-270.53 193.47,-261.31"/>
<polygon fill="black" stroke="black" points="196.73,-262.62 198.19,-252.12 190.51,-259.42 196.73,-262.62"/>
</g>
<!-- 1 -->
<g id="node5" class="node">
<title>1</title>
<ellipse fill="none" stroke="black" cx="207" cy="-378" rx="27" ry="18"/>
<text text-anchor="middle" x="207" y="-374.3" font-family="Courrier" font-size="14.00">5</text>
</g>
<!-- 1&#45;&gt;2 -->
<g id="edge4" class="edge">
<title>1&#45;&gt;2</title>
<path fill="none" stroke="black" d="M198.65,-360.76C194.29,-352.28 188.85,-341.71 183.96,-332.2"/>
<polygon fill="black" stroke="black" points="186.99,-330.44 179.3,-323.15 180.77,-333.64 186.99,-330.44"/>
</g>
<!-- null02 -->
<g id="node8" class="node">
<title>null02</title>
<text text-anchor="middle" x="243" y="-302.3" font-family="Courrier" font-size="14.00">null</text>
</g>
<!-- 1&#45;&gt;null02 -->
<g id="edge3" class="edge">
<title>1&#45;&gt;null02</title>
<path fill="none" stroke="black" d="M215.35,-360.76C219.54,-352.61 224.73,-342.53 229.47,-333.31"/>
<polygon fill="black" stroke="black" points="232.73,-334.62 234.19,-324.12 226.51,-331.42 232.73,-334.62"/>
</g>
<!-- 0 -->
<g id="node6" class="node">
<title>0</title>
<ellipse fill="none" stroke="black" cx="243" cy="-450" rx="27" ry="18"/>
<text text-anchor="middle" x="243" y="-446.3" font-family="Courrier" font-size="14.00">6</text>
</g>
<!-- 0&#45;&gt;1 -->
<g id="edge2" class="edge">
<title>0&#45;&gt;1</title>
<path fill="none" stroke="black" d="M234.65,-432.76C230.29,-424.28 224.85,-413.71 219.96,-404.2"/>
<polygon fill="black" stroke="black" points="222.99,-402.44 215.3,-395.15 216.77,-405.64 222.99,-402.44"/>
</g>
<!-- null01 -->
<g id="node7" class="node">
<title>null01</title>
<text text-anchor="middle" x="279" y="-374.3" font-family="Courrier" font-size="14.00">null</text>
</g>
<!-- 0&#45;&gt;null01 -->
<g id="edge1" class="edge">
<title>0&#45;&gt;null01</title>
<path fill="none" stroke="black" d="M251.35,-432.76C255.54,-424.61 260.73,-414.53 265.47,-405.31"/>
<polygon fill="black" stroke="black" points="268.73,-406.62 270.19,-396.12 262.51,-403.42 268.73,-406.62"/>
</g>
</g>
</svg>
