<?xml version="1.0" encoding="UTF-8" standalone="no"?>
<!DOCTYPE svg PUBLIC "-//W3C//DTD SVG 1.1//EN"
 "http://www.w3.org/Graphics/SVG/1.1/DTD/svg11.dtd">
<!-- Generated by graphviz version 2.42.4 (0)
 -->
<!-- Title: arbre Pages: 1 -->
<svg width="566pt" height="260pt"
 viewBox="0.00 0.00 566.00 260.00" xmlns="http://www.w3.org/2000/svg" xmlns:xlink="http://www.w3.org/1999/xlink">
<g id="graph0" class="graph" transform="scale(1 1) rotate(0) translate(4 256)">
<title>arbre</title>
<polygon fill="white" stroke="transparent" points="-4,4 -4,-256 562,-256 562,4 -4,4"/>
<!-- 0 -->
<g id="node1" class="node">
<title>0</title>
<ellipse fill="none" stroke="black" cx="99" cy="-90" rx="27" ry="18"/>
<text text-anchor="middle" x="99" y="-86.3" font-family="Courrier" font-size="14.00">0</text>
</g>
<!-- null03 -->
<g id="node10" class="node">
<title>null03</title>
<text text-anchor="middle" x="27" y="-14.3" font-family="Courrier" font-size="14.00">null</text>
</g>
<!-- 0&#45;&gt;null03 -->
<g id="edge9" class="edge">
<title>0&#45;&gt;null03</title>
<path fill="none" stroke="black" d="M84.43,-74.83C75.08,-65.75 62.7,-53.71 51.83,-43.14"/>
<polygon fill="black" stroke="black" points="54.21,-40.57 44.6,-36.11 49.33,-45.59 54.21,-40.57"/>
</g>
<!-- null04 -->
<g id="node11" class="node">
<title>null04</title>
<text text-anchor="middle" x="99" y="-14.3" font-family="Courrier" font-size="14.00">null</text>
</g>
<!-- 0&#45;&gt;null04 -->
<g id="edge10" class="edge">
<title>0&#45;&gt;null04</title>
<path fill="none" stroke="black" d="M99,-71.7C99,-63.98 99,-54.71 99,-46.11"/>
<polygon fill="black" stroke="black" points="102.5,-46.1 99,-36.1 95.5,-46.1 102.5,-46.1"/>
</g>
<!-- 1 -->
<g id="node2" class="node">
<title>1</title>
<ellipse fill="none" stroke="black" cx="207" cy="-162" rx="27" ry="18"/>
<text text-anchor="middle" x="207" y="-158.3" font-family="Courrier" font-size="14.00">1</text>
</g>
<!-- 1&#45;&gt;0 -->
<g id="edge4" class="edge">
<title>1&#45;&gt;0</title>
<path fill="none" stroke="black" d="M188.19,-148.81C171,-137.67 145.38,-121.06 126.01,-108.5"/>
<polygon fill="black" stroke="black" points="127.89,-105.56 117.6,-103.05 124.08,-111.43 127.89,-105.56"/>
</g>
<!-- 2 -->
<g id="node3" class="node">
<title>2</title>
<ellipse fill="none" stroke="black" cx="207" cy="-90" rx="27" ry="18"/>
<text text-anchor="middle" x="207" y="-86.3" font-family="Courrier" font-size="14.00">2</text>
</g>
<!-- 1&#45;&gt;2 -->
<g id="edge3" class="edge">
<title>1&#45;&gt;2</title>
<path fill="none" stroke="black" d="M207,-143.7C207,-135.98 207,-126.71 207,-118.11"/>
<polygon fill="black" stroke="black" points="210.5,-118.1 207,-108.1 203.5,-118.1 210.5,-118.1"/>
</g>
<!-- null01 -->
<g id="node8" class="node">
<title>null01</title>
<text text-anchor="middle" x="171" y="-14.3" font-family="Courrier" font-size="14.00">null</text>
</g>
<!-- 2&#45;&gt;null01 -->
<g id="edge7" class="edge">
<title>2&#45;&gt;null01</title>
<path fill="none" stroke="black" d="M198.65,-72.76C194.46,-64.61 189.27,-54.53 184.53,-45.31"/>
<polygon fill="black" stroke="black" points="187.49,-43.42 179.81,-36.12 181.27,-46.62 187.49,-43.42"/>
</g>
<!-- null02 -->
<g id="node9" class="node">
<title>null02</title>
<text text-anchor="middle" x="243" y="-14.3" font-family="Courrier" font-size="14.00">null</text>
</g>
<!-- 2&#45;&gt;null02 -->
<g id="edge8" class="edge">
<title>2&#45;&gt;null02</title>
<path fill="none" stroke="black" d="M215.35,-72.76C219.54,-64.61 224.73,-54.53 229.47,-45.31"/>
<polygon fill="black" stroke="black" points="232.73,-46.62 234.19,-36.12 226.51,-43.42 232.73,-46.62"/>
</g>
<!-- 3 -->
<g id="node4" class="node">
<title>3</title>
<ellipse fill="none" stroke="black" cx="279" cy="-234" rx="27" ry="18"/>
<text text-anchor="middle" x="279" y="-230.3" font-family="Courrier" font-size="14.00">3</text>
</g>
<!-- 3&#45;&gt;1 -->
<g id="edge2" class="edge">
<title>3&#45;&gt;1</title>
<path fill="none" stroke="black" d="M264.43,-218.83C254.25,-208.94 240.48,-195.55 228.97,-184.36"/>
<polygon fill="black" stroke="black" points="231.41,-181.85 221.8,-177.38 226.53,-186.87 231.41,-181.85"/>
</g>
<!-- 5 -->
<g id="node6" class="node">
<title>5</title>
<ellipse fill="none" stroke="black" cx="351" cy="-162" rx="27" ry="18"/>
<text text-anchor="middle" x="351" y="-158.3" font-family="Courrier" font-size="14.00">5</text>
</g>
<!-- 3&#45;&gt;5 -->
<g id="edge1" class="edge">
<title>3&#45;&gt;5</title>
<path fill="none" stroke="black" d="M293.57,-218.83C303.75,-208.94 317.52,-195.55 329.03,-184.36"/>
<polygon fill="black" stroke="black" points="331.47,-186.87 336.2,-177.38 326.59,-181.85 331.47,-186.87"/>
</g>
<!-- 4 -->
<g id="node5" class="node">
<title>4</title>
<ellipse fill="none" stroke="black" cx="351" cy="-90" rx="27" ry="18"/>
<text text-anchor="middle" x="351" y="-86.3" font-family="Courrier" font-size="14.00">4</text>
</g>
<!-- null07 -->
<g id="node14" class="node">
<title>null07</title>
<text text-anchor="middle" x="315" y="-14.3" font-family="Courrier" font-size="14.00">null</text>
</g>
<!-- 4&#45;&gt;null07 -->
<g id="edge13" class="edge">
<title>4&#45;&gt;null07</title>
<path fill="none" stroke="black" d="M342.65,-72.76C338.46,-64.61 333.27,-54.53 328.53,-45.31"/>
<polygon fill="black" stroke="black" points="331.49,-43.42 323.81,-36.12 325.27,-46.62 331.49,-43.42"/>
</g>
<!-- null08 -->
<g id="node15" class="node">
<title>null08</title>
<text text-anchor="middle" x="387" y="-14.3" font-family="Courrier" font-size="14.00">null</text>
</g>
<!-- 4&#45;&gt;null08 -->
<g id="edge14" class="edge">
<title>4&#45;&gt;null08</title>
<path fill="none" stroke="black" d="M359.35,-72.76C363.54,-64.61 368.73,-54.53 373.47,-45.31"/>
<polygon fill="black" stroke="black" points="376.73,-46.62 378.19,-36.12 370.51,-43.42 376.73,-46.62"/>
</g>
<!-- 5&#45;&gt;4 -->
<g id="edge6" class="edge">
<title>5&#45;&gt;4</title>
<path fill="none" stroke="black" d="M351,-143.7C351,-135.98 351,-126.71 351,-118.11"/>
<polygon fill="black" stroke="black" points="354.5,-118.1 351,-108.1 347.5,-118.1 354.5,-118.1"/>
</g>
<!-- 6 -->
<g id="node7" class="node">
<title>6</title>
<ellipse fill="none" stroke="black" cx="459" cy="-90" rx="27" ry="18"/>
<text text-anchor="middle" x="459" y="-86.3" font-family="Courrier" font-size="14.00">6</text>
</g>
<!-- 5&#45;&gt;6 -->
<g id="edge5" class="edge">
<title>5&#45;&gt;6</title>
<path fill="none" stroke="black" d="M369.81,-148.81C387,-137.67 412.62,-121.06 431.99,-108.5"/>
<polygon fill="black" stroke="black" points="433.92,-111.43 440.4,-103.05 430.11,-105.56 433.92,-111.43"/>
</g>
<!-- null05 -->
<g id="node12" class="node">
<title>null05</title>
<text text-anchor="middle" x="459" y="-14.3" font-family="Courrier" font-size="14.00">null</text>
</g>
<!-- 6&#45;&gt;null05 -->
<g id="edge11" class="edge">
<title>6&#45;&gt;null05</title>
<path fill="none" stroke="black" d="M459,-71.7C459,-63.98 459,-54.71 459,-46.11"/>
<polygon fill="black" stroke="black" points="462.5,-46.1 459,-36.1 455.5,-46.1 462.5,-46.1"/>
</g>
<!-- null06 -->
<g id="node13" class="node">
<title>null06</title>
<text text-anchor="middle" x="531" y="-14.3" font-family="Courrier" font-size="14.00">null</text>
</g>
<!-- 6&#45;&gt;null06 -->
<g id="edge12" class="edge">
<title>6&#45;&gt;null06</title>
<path fill="none" stroke="black" d="M473.57,-74.83C482.92,-65.75 495.3,-53.71 506.17,-43.14"/>
<polygon fill="black" stroke="black" points="508.67,-45.59 513.4,-36.11 503.79,-40.57 508.67,-45.59"/>
</g>
</g>
</svg>
