<?xml version="1.0" encoding="UTF-8" standalone="no"?>
<!DOCTYPE svg PUBLIC "-//W3C//DTD SVG 1.1//EN"
 "http://www.w3.org/Graphics/SVG/1.1/DTD/svg11.dtd">
<!-- Generated by graphviz version 2.40.1 (0)
 -->
<!-- Title: arbre Pages: 1 -->
<svg width="494pt" height="260pt"
 viewBox="0.00 0.00 494.00 260.00" xmlns="http://www.w3.org/2000/svg" xmlns:xlink="http://www.w3.org/1999/xlink">
<g id="graph0" class="graph" transform="scale(1 1) rotate(0) translate(4 256)">
<title>arbre</title>
<polygon fill="#ffffff" stroke="transparent" points="-4,4 -4,-256 490,-256 490,4 -4,4"/>
<!-- 0 -->
<g id="node1" class="node">
<title>0</title>
<ellipse fill="none" stroke="#000000" cx="99" cy="-90" rx="27" ry="18"/>
</g>
<!-- c -->
<g id="node10" class="node">
<title>c</title>
<ellipse fill="none" stroke="#000000" cx="27" cy="-18" rx="27" ry="18"/>
</g>
<!-- 0&#45;&gt;c -->
<g id="edge5" class="edge">
<title>0&#45;&gt;c</title>
<path fill="none" stroke="#000000" d="M83.7307,-74.7307C73.803,-64.803 60.6847,-51.6847 49.5637,-40.5637"/>
<polygon fill="#000000" stroke="#000000" points="51.7933,-37.8436 42.2473,-33.2473 46.8436,-42.7933 51.7933,-37.8436"/>
</g>
<!-- d -->
<g id="node11" class="node">
<title>d</title>
<ellipse fill="none" stroke="#000000" cx="99" cy="-18" rx="27" ry="18"/>
</g>
<!-- 0&#45;&gt;d -->
<g id="edge6" class="edge">
<title>0&#45;&gt;d</title>
<path fill="none" stroke="#000000" d="M99,-71.8314C99,-64.131 99,-54.9743 99,-46.4166"/>
<polygon fill="#000000" stroke="#000000" points="102.5001,-46.4132 99,-36.4133 95.5001,-46.4133 102.5001,-46.4132"/>
</g>
<!-- e -->
<g id="node12" class="node">
<title>e</title>
<ellipse fill="none" stroke="#000000" cx="171" cy="-18" rx="27" ry="18"/>
</g>
<!-- 0&#45;&gt;e -->
<g id="edge7" class="edge">
<title>0&#45;&gt;e</title>
<path fill="none" stroke="#000000" d="M114.2693,-74.7307C124.197,-64.803 137.3153,-51.6847 148.4363,-40.5637"/>
<polygon fill="#000000" stroke="#000000" points="151.1564,-42.7933 155.7527,-33.2473 146.2067,-37.8436 151.1564,-42.7933"/>
</g>
<!-- 1 -->
<g id="node2" class="node">
<title>1</title>
<ellipse fill="none" stroke="#000000" cx="171" cy="-162" rx="27" ry="18"/>
</g>
<!-- 1&#45;&gt;0 -->
<g id="edge4" class="edge">
<title>1&#45;&gt;0</title>
<path fill="none" stroke="#000000" d="M155.7307,-146.7307C145.803,-136.803 132.6847,-123.6847 121.5637,-112.5637"/>
<polygon fill="#000000" stroke="#000000" points="123.7933,-109.8436 114.2473,-105.2473 118.8436,-114.7933 123.7933,-109.8436"/>
</g>
<!-- 2 -->
<g id="node3" class="node">
<title>2</title>
<ellipse fill="none" stroke="#000000" cx="171" cy="-90" rx="27" ry="18"/>
</g>
<!-- 1&#45;&gt;2 -->
<g id="edge3" class="edge">
<title>1&#45;&gt;2</title>
<path fill="none" stroke="#000000" d="M171,-143.8314C171,-136.131 171,-126.9743 171,-118.4166"/>
<polygon fill="#000000" stroke="#000000" points="174.5001,-118.4132 171,-108.4133 167.5001,-118.4133 174.5001,-118.4132"/>
</g>
<!-- 3 -->
<g id="node4" class="node">
<title>3</title>
<ellipse fill="none" stroke="#000000" cx="243" cy="-234" rx="27" ry="18"/>
</g>
<!-- 3&#45;&gt;1 -->
<g id="edge2" class="edge">
<title>3&#45;&gt;1</title>
<path fill="none" stroke="#000000" d="M227.7307,-218.7307C217.803,-208.803 204.6847,-195.6847 193.5637,-184.5637"/>
<polygon fill="#000000" stroke="#000000" points="195.7933,-181.8436 186.2473,-177.2473 190.8436,-186.7933 195.7933,-181.8436"/>
</g>
<!-- 5 -->
<g id="node6" class="node">
<title>5</title>
<ellipse fill="none" stroke="#000000" cx="315" cy="-162" rx="27" ry="18"/>
</g>
<!-- 3&#45;&gt;5 -->
<g id="edge1" class="edge">
<title>3&#45;&gt;5</title>
<path fill="none" stroke="#000000" d="M258.2693,-218.7307C268.197,-208.803 281.3153,-195.6847 292.4363,-184.5637"/>
<polygon fill="#000000" stroke="#000000" points="295.1564,-186.7933 299.7527,-177.2473 290.2067,-181.8436 295.1564,-186.7933"/>
</g>
<!-- 4 -->
<g id="node5" class="node">
<title>4</title>
<ellipse fill="none" stroke="#000000" cx="243" cy="-90" rx="27" ry="18"/>
</g>
<!-- 5&#45;&gt;4 -->
<g id="edge11" class="edge">
<title>5&#45;&gt;4</title>
<path fill="none" stroke="#000000" d="M299.7307,-146.7307C289.803,-136.803 276.6847,-123.6847 265.5637,-112.5637"/>
<polygon fill="#000000" stroke="#000000" points="267.7933,-109.8436 258.2473,-105.2473 262.8436,-114.7933 267.7933,-109.8436"/>
</g>
<!-- 6 -->
<g id="node7" class="node">
<title>6</title>
<ellipse fill="none" stroke="#000000" cx="315" cy="-90" rx="27" ry="18"/>
</g>
<!-- 5&#45;&gt;6 -->
<g id="edge8" class="edge">
<title>5&#45;&gt;6</title>
<path fill="none" stroke="#000000" d="M315,-143.8314C315,-136.131 315,-126.9743 315,-118.4166"/>
<polygon fill="#000000" stroke="#000000" points="318.5001,-118.4132 315,-108.4133 311.5001,-118.4133 318.5001,-118.4132"/>
</g>
<!-- a -->
<g id="node8" class="node">
<title>a</title>
<ellipse fill="none" stroke="#000000" cx="387" cy="-90" rx="27" ry="18"/>
</g>
<!-- 5&#45;&gt;a -->
<g id="edge9" class="edge">
<title>5&#45;&gt;a</title>
<path fill="none" stroke="#000000" d="M330.2693,-146.7307C340.197,-136.803 353.3153,-123.6847 364.4363,-112.5637"/>
<polygon fill="#000000" stroke="#000000" points="367.1564,-114.7933 371.7527,-105.2473 362.2067,-109.8436 367.1564,-114.7933"/>
</g>
<!-- b -->
<g id="node9" class="node">
<title>b</title>
<ellipse fill="none" stroke="#000000" cx="459" cy="-90" rx="27" ry="18"/>
</g>
<!-- 5&#45;&gt;b -->
<g id="edge10" class="edge">
<title>5&#45;&gt;b</title>
<path fill="none" stroke="#000000" d="M336.8705,-151.0647C361.2222,-138.8889 400.762,-119.119 428.2285,-105.3858"/>
<polygon fill="#000000" stroke="#000000" points="430.0165,-108.4049 437.3955,-100.8022 426.886,-102.1439 430.0165,-108.4049"/>
</g>
</g>
</svg>
