<?xml version="1.0" encoding="UTF-8" standalone="no"?>
<!DOCTYPE svg PUBLIC "-//W3C//DTD SVG 1.1//EN"
 "http://www.w3.org/Graphics/SVG/1.1/DTD/svg11.dtd">
<!-- Generated by graphviz version 2.40.1 (0)
 -->
<!-- Title: arbre Pages: 1 -->
<svg width="281pt" height="332pt"
 viewBox="0.00 0.00 280.60 332.00" xmlns="http://www.w3.org/2000/svg" xmlns:xlink="http://www.w3.org/1999/xlink">
<g id="graph0" class="graph" transform="scale(1 1) rotate(0) translate(4 328)">
<title>arbre</title>
<polygon fill="#ffffff" stroke="transparent" points="-4,4 -4,-328 276.5975,-328 276.5975,4 -4,4"/>
<!-- 0 -->
<g id="node1" class="node">
<title>0</title>
<ellipse fill="none" stroke="#000000" cx="99" cy="-306" rx="27" ry="18"/>
</g>
<!-- 11 -->
<g id="node2" class="node">
<title>11</title>
<ellipse fill="none" stroke="#000000" cx="27" cy="-234" rx="27" ry="18"/>
<text text-anchor="middle" x="27" y="-230.3" font-family="Courrier" font-size="14.00" fill="#000000">1</text>
</g>
<!-- 0&#45;&gt;11 -->
<g id="edge1" class="edge">
<title>0&#45;&gt;11</title>
<path fill="none" stroke="#000000" d="M83.7307,-290.7307C73.803,-280.803 60.6847,-267.6847 49.5637,-256.5637"/>
<polygon fill="#000000" stroke="#000000" points="51.7933,-253.8436 42.2473,-249.2473 46.8436,-258.7933 51.7933,-253.8436"/>
</g>
<!-- 12 -->
<g id="node3" class="node">
<title>12</title>
<ellipse fill="none" stroke="#000000" cx="99" cy="-234" rx="27" ry="18"/>
<text text-anchor="middle" x="99" y="-230.3" font-family="Courrier" font-size="14.00" fill="#000000">2</text>
</g>
<!-- 0&#45;&gt;12 -->
<g id="edge2" class="edge">
<title>0&#45;&gt;12</title>
<path fill="none" stroke="#000000" d="M99,-287.8314C99,-280.131 99,-270.9743 99,-262.4166"/>
<polygon fill="#000000" stroke="#000000" points="102.5001,-262.4132 99,-252.4133 95.5001,-262.4133 102.5001,-262.4132"/>
</g>
<!-- 13 -->
<g id="node4" class="node">
<title>13</title>
<ellipse fill="none" stroke="#000000" cx="171" cy="-234" rx="27" ry="18"/>
</g>
<!-- 0&#45;&gt;13 -->
<g id="edge3" class="edge">
<title>0&#45;&gt;13</title>
<path fill="none" stroke="#000000" d="M114.2693,-290.7307C124.197,-280.803 137.3153,-267.6847 148.4363,-256.5637"/>
<polygon fill="#000000" stroke="#000000" points="151.1564,-258.7933 155.7527,-249.2473 146.2067,-253.8436 151.1564,-258.7933"/>
</g>
<!-- 21 -->
<g id="node5" class="node">
<title>21</title>
<ellipse fill="none" stroke="#000000" cx="135" cy="-162" rx="27" ry="18"/>
<text text-anchor="middle" x="135" y="-158.3" font-family="Courrier" font-size="14.00" fill="#000000">2</text>
</g>
<!-- 13&#45;&gt;21 -->
<g id="edge4" class="edge">
<title>13&#45;&gt;21</title>
<path fill="none" stroke="#000000" d="M162.2854,-216.5708C158.0403,-208.0807 152.8464,-197.6929 148.1337,-188.2674"/>
<polygon fill="#000000" stroke="#000000" points="151.237,-186.6477 143.6343,-179.2687 144.976,-189.7782 151.237,-186.6477"/>
</g>
<!-- 22 -->
<g id="node6" class="node">
<title>22</title>
<ellipse fill="none" stroke="#000000" cx="207" cy="-162" rx="27" ry="18"/>
</g>
<!-- 13&#45;&gt;22 -->
<g id="edge5" class="edge">
<title>13&#45;&gt;22</title>
<path fill="none" stroke="#000000" d="M179.7146,-216.5708C183.9597,-208.0807 189.1536,-197.6929 193.8663,-188.2674"/>
<polygon fill="#000000" stroke="#000000" points="197.024,-189.7782 198.3657,-179.2687 190.763,-186.6477 197.024,-189.7782"/>
</g>
<!-- 31 -->
<g id="node7" class="node">
<title>31</title>
<ellipse fill="none" stroke="#000000" cx="170" cy="-90" rx="27" ry="18"/>
</g>
<!-- 22&#45;&gt;31 -->
<g id="edge6" class="edge">
<title>22&#45;&gt;31</title>
<path fill="none" stroke="#000000" d="M198.2315,-144.937C193.8721,-136.4537 188.5047,-126.0092 183.6247,-116.513"/>
<polygon fill="#000000" stroke="#000000" points="186.6463,-114.7352 178.9626,-107.4407 180.4203,-117.9348 186.6463,-114.7352"/>
</g>
<!-- 32 -->
<g id="node8" class="node">
<title>32</title>
<ellipse fill="none" stroke="#000000" cx="244" cy="-90" rx="28.6953" ry="18"/>
<text text-anchor="middle" x="244" y="-86.3" font-family="Courrier" font-size="14.00" fill="#000000">423</text>
</g>
<!-- 22&#45;&gt;32 -->
<g id="edge7" class="edge">
<title>22&#45;&gt;32</title>
<path fill="none" stroke="#000000" d="M215.7685,-144.937C220.1279,-136.4537 225.4953,-126.0092 230.3753,-116.513"/>
<polygon fill="#000000" stroke="#000000" points="233.5797,-117.9348 235.0374,-107.4407 227.3537,-114.7352 233.5797,-117.9348"/>
</g>
<!-- 41 -->
<g id="node9" class="node">
<title>41</title>
<ellipse fill="none" stroke="#000000" cx="134" cy="-18" rx="27" ry="18"/>
<text text-anchor="middle" x="134" y="-14.3" font-family="Courrier" font-size="14.00" fill="#000000">44</text>
</g>
<!-- 31&#45;&gt;41 -->
<g id="edge8" class="edge">
<title>31&#45;&gt;41</title>
<path fill="none" stroke="#000000" d="M161.2854,-72.5708C157.0403,-64.0807 151.8464,-53.6929 147.1337,-44.2674"/>
<polygon fill="#000000" stroke="#000000" points="150.237,-42.6477 142.6343,-35.2687 143.976,-45.7782 150.237,-42.6477"/>
</g>
<!-- 42 -->
<g id="node10" class="node">
<title>42</title>
<ellipse fill="none" stroke="#000000" cx="206" cy="-18" rx="27" ry="18"/>
<text text-anchor="middle" x="206" y="-14.3" font-family="Courrier" font-size="14.00" fill="#000000">2</text>
</g>
<!-- 31&#45;&gt;42 -->
<g id="edge9" class="edge">
<title>31&#45;&gt;42</title>
<path fill="none" stroke="#000000" d="M178.7146,-72.5708C182.9597,-64.0807 188.1536,-53.6929 192.8663,-44.2674"/>
<polygon fill="#000000" stroke="#000000" points="196.024,-45.7782 197.3657,-35.2687 189.763,-42.6477 196.024,-45.7782"/>
</g>
</g>
</svg>
