<?xml version="1.0" encoding="UTF-8" standalone="no"?>
<!DOCTYPE svg PUBLIC "-//W3C//DTD SVG 1.0//EN" "http://www.w3.org/TR/2001/PR-SVG-20010719/DTD/svg10.dtd">
<svg width="25cm" height="7cm" viewBox="564 244 483 135" xmlns="http://www.w3.org/2000/svg" xmlns:xlink="http://www.w3.org/1999/xlink">
  <g>
    <rect style="fill: #ffffff" x="565" y="310" width="233.3" height="28"/>
    <rect style="fill: none; fill-opacity:0; stroke-width: 2; stroke: #000000" x="565" y="310" width="233.3" height="28"/>
    <text font-size="16" style="fill: #000000;text-anchor:middle;font-family:sans-serif;font-style:normal;font-weight:700" x="681.65" y="329">Film</text>
    <rect style="fill: #ffffff" x="565" y="338" width="233.3" height="20"/>
    <rect style="fill: none; fill-opacity:0; stroke-width: 2; stroke: #000000" x="565" y="338" width="233.3" height="20"/>
    <text font-size="12.8" style="fill: #000000;text-anchor:start;font-family:monospace;font-style:normal;font-weight:normal" x="568" y="352"> List&lt;Personnage&gt; personnages</text>
    <rect style="fill: #ffffff" x="565" y="358" width="233.3" height="8"/>
    <rect style="fill: none; fill-opacity:0; stroke-width: 2; stroke: #000000" x="565" y="358" width="233.3" height="8"/>
  </g>
  <g>
    <rect style="fill: #ffffff" x="866.4" y="309.8" width="140.9" height="28"/>
    <rect style="fill: none; fill-opacity:0; stroke-width: 2; stroke: #000000" x="866.4" y="309.8" width="140.9" height="28"/>
    <text font-size="16" style="fill: #000000;text-anchor:middle;font-family:sans-serif;font-style:normal;font-weight:700" x="936.85" y="328.8">Personnage</text>
    <rect style="fill: #ffffff" x="866.4" y="337.8" width="140.9" height="20"/>
    <rect style="fill: none; fill-opacity:0; stroke-width: 2; stroke: #000000" x="866.4" y="337.8" width="140.9" height="20"/>
    <text font-size="12.8" style="fill: #000000;text-anchor:start;font-family:monospace;font-style:normal;font-weight:normal" x="869.4" y="351.8"> List&lt;Film&gt; films</text>
    <rect style="fill: #ffffff" x="866.4" y="357.8" width="140.9" height="8"/>
    <rect style="fill: none; fill-opacity:0; stroke-width: 2; stroke: #000000" x="866.4" y="357.8" width="140.9" height="8"/>
  </g>
  <g>
    <polyline style="fill: none; fill-opacity:0; stroke-width: 2; stroke: #000000" points="823.472,348 839.35,348 839.35,347.8 866.4,347.8 "/>
    <polygon style="fill: #ffffff" points="798.3,348 812.3,343.2 826.3,348 812.3,352.8 "/>
    <polygon style="fill: none; fill-opacity:0; stroke-width: 2; stroke: #000000" points="798.3,348 812.3,343.2 826.3,348 812.3,352.8 "/>
  </g>
  <g>
    <polyline style="fill: none; fill-opacity:0; stroke-width: 2; stroke: #000000" points="1032.47,347.8 1045,347.8 1045,246 681.65,246 681.65,310 "/>
    <polygon style="fill: #ffffff" points="1007.3,347.8 1021.3,343 1035.3,347.8 1021.3,352.6 "/>
    <polygon style="fill: none; fill-opacity:0; stroke-width: 2; stroke: #000000" points="1007.3,347.8 1021.3,343 1035.3,347.8 1021.3,352.6 "/>
  </g>
</svg>
