<?xml version="1.0" encoding="UTF-8" standalone="no"?>
<!DOCTYPE svg PUBLIC "-//W3C//DTD SVG 1.1//EN"
 "http://www.w3.org/Graphics/SVG/1.1/DTD/svg11.dtd">
<!-- Generated by graphviz version 2.40.1 (0)
 -->
<!-- Title: liste Pages: 1 -->
<svg width="602pt" height="90pt"
 viewBox="0.00 0.00 602.00 90.00" xmlns="http://www.w3.org/2000/svg" xmlns:xlink="http://www.w3.org/1999/xlink">
<g id="graph0" class="graph" transform="scale(1 1) rotate(0) translate(4 86)">
<title>liste</title>
<polygon fill="#ffffff" stroke="transparent" points="-4,4 -4,-86 598,-86 598,4 -4,4"/>
<!-- tete -->
<g id="node1" class="node">
<title>tete</title>
<text text-anchor="middle" x="27" y="-32.3" font-family="Courrier" font-size="14.00" fill="#000000">tête</text>
</g>
<!-- 0 -->
<g id="node2" class="node">
<title>0</title>
<ellipse fill="none" stroke="#000000" cx="117" cy="-36" rx="27" ry="18"/>
<text text-anchor="middle" x="117" y="-32.3" font-family="Courrier" font-size="14.00" fill="#000000">a</text>
</g>
<!-- tete&#45;&gt;0 -->
<g id="edge1" class="edge">
<title>tete&#45;&gt;0</title>
<path fill="none" stroke="#000000" d="M54.003,-36C62.0277,-36 70.9665,-36 79.5309,-36"/>
<polygon fill="#000000" stroke="#000000" points="79.7051,-39.5001 89.705,-36 79.705,-32.5001 79.7051,-39.5001"/>
</g>
<!-- 1 -->
<g id="node3" class="node">
<title>1</title>
<ellipse fill="none" stroke="#000000" cx="207" cy="-64" rx="27" ry="18"/>
<text text-anchor="middle" x="207" y="-60.3" font-family="Courrier" font-size="14.00" fill="#000000">b</text>
</g>
<!-- 0&#45;&gt;1 -->
<g id="edge2" class="edge">
<title>0&#45;&gt;1</title>
<path fill="none" stroke="#000000" d="M144.003,-38.1556C154.4685,-40.793 166.4889,-44.4827 177.2055,-48.3354"/>
<polygon fill="#000000" stroke="#000000" points="176.0073,-51.6242 186.5987,-51.894 178.4872,-45.0782 176.0073,-51.6242"/>
</g>
<!-- 5 -->
<g id="node7" class="node">
<title>5</title>
<ellipse fill="none" stroke="#000000" cx="567" cy="-36" rx="27" ry="18"/>
<text text-anchor="middle" x="567" y="-32.3" font-family="Courrier" font-size="14.00" fill="#000000">f</text>
</g>
<!-- 0&#45;&gt;5 -->
<g id="edge3" class="edge">
<title>0&#45;&gt;5</title>
<path fill="none" stroke="#000000" stroke-dasharray="1,5" d="M138.4557,-24.9532C172.0401,-13.797 239.1727,0 297,0 297,0 297,0 387,0 439.6319,0 499.9721,-11.4293 535.7109,-21.8943"/>
<polygon fill="#000000" stroke="#000000" points="534.956,-25.3248 545.5443,-24.9532 537.0353,-18.6407 534.956,-25.3248"/>
</g>
<!-- 1&#45;&gt;0 -->
<g id="edge4" class="edge">
<title>1&#45;&gt;0</title>
<path fill="none" stroke="#000000" stroke-dasharray="1,5" d="M180.1684,-61.8875C169.6821,-59.2522 157.6139,-55.5519 146.8536,-51.6858"/>
<polygon fill="#000000" stroke="#000000" points="148.0138,-48.3827 137.4224,-48.1145 145.5349,-54.929 148.0138,-48.3827"/>
</g>
<!-- 2 -->
<g id="node4" class="node">
<title>2</title>
<ellipse fill="none" stroke="#000000" cx="297" cy="-64" rx="27" ry="18"/>
<text text-anchor="middle" x="297" y="-60.3" font-family="Courrier" font-size="14.00" fill="#000000">c</text>
</g>
<!-- 1&#45;&gt;2 -->
<g id="edge5" class="edge">
<title>1&#45;&gt;2</title>
<path fill="none" stroke="#000000" d="M232.5497,-57.8449C241.4801,-57.2634 251.6762,-57.1082 261.2822,-57.3793"/>
<polygon fill="#000000" stroke="#000000" points="261.2372,-60.8808 271.3865,-57.8408 261.5566,-53.8881 261.2372,-60.8808"/>
</g>
<!-- 2&#45;&gt;1 -->
<g id="edge6" class="edge">
<title>2&#45;&gt;1</title>
<path fill="none" stroke="#000000" stroke-dasharray="1,5" d="M271.3865,-70.1592C262.45,-70.7387 252.2523,-70.8919 242.6491,-70.6188"/>
<polygon fill="#000000" stroke="#000000" points="242.6997,-67.1175 232.5497,-70.1551 242.3786,-74.1101 242.6997,-67.1175"/>
</g>
<!-- 3 -->
<g id="node5" class="node">
<title>3</title>
<ellipse fill="none" stroke="#000000" cx="387" cy="-64" rx="27" ry="18"/>
<text text-anchor="middle" x="387" y="-60.3" font-family="Courrier" font-size="14.00" fill="#000000">d</text>
</g>
<!-- 2&#45;&gt;3 -->
<g id="edge7" class="edge">
<title>2&#45;&gt;3</title>
<path fill="none" stroke="#000000" d="M322.5497,-57.8449C331.4801,-57.2634 341.6762,-57.1082 351.2822,-57.3793"/>
<polygon fill="#000000" stroke="#000000" points="351.2372,-60.8808 361.3865,-57.8408 351.5566,-53.8881 351.2372,-60.8808"/>
</g>
<!-- 3&#45;&gt;2 -->
<g id="edge8" class="edge">
<title>3&#45;&gt;2</title>
<path fill="none" stroke="#000000" stroke-dasharray="1,5" d="M361.3865,-70.1592C352.45,-70.7387 342.2523,-70.8919 332.6491,-70.6188"/>
<polygon fill="#000000" stroke="#000000" points="332.6997,-67.1175 322.5497,-70.1551 332.3786,-74.1101 332.6997,-67.1175"/>
</g>
<!-- 4 -->
<g id="node6" class="node">
<title>4</title>
<ellipse fill="none" stroke="#000000" cx="477" cy="-64" rx="27" ry="18"/>
<text text-anchor="middle" x="477" y="-60.3" font-family="Courrier" font-size="14.00" fill="#000000">e</text>
</g>
<!-- 3&#45;&gt;4 -->
<g id="edge9" class="edge">
<title>3&#45;&gt;4</title>
<path fill="none" stroke="#000000" d="M412.5497,-57.8449C421.4801,-57.2634 431.6762,-57.1082 441.2822,-57.3793"/>
<polygon fill="#000000" stroke="#000000" points="441.2372,-60.8808 451.3865,-57.8408 441.5566,-53.8881 441.2372,-60.8808"/>
</g>
<!-- 4&#45;&gt;3 -->
<g id="edge10" class="edge">
<title>4&#45;&gt;3</title>
<path fill="none" stroke="#000000" stroke-dasharray="1,5" d="M451.3865,-70.1592C442.45,-70.7387 432.2523,-70.8919 422.6491,-70.6188"/>
<polygon fill="#000000" stroke="#000000" points="422.6997,-67.1175 412.5497,-70.1551 422.3786,-74.1101 422.6997,-67.1175"/>
</g>
<!-- 4&#45;&gt;5 -->
<g id="edge11" class="edge">
<title>4&#45;&gt;5</title>
<path fill="none" stroke="#000000" d="M497.4224,-51.8855C507.111,-48.0022 518.9923,-44.0094 530.1763,-40.8063"/>
<polygon fill="#000000" stroke="#000000" points="531.4242,-44.0949 540.1684,-38.1125 529.6021,-37.3362 531.4242,-44.0949"/>
</g>
<!-- 5&#45;&gt;0 -->
<g id="edge13" class="edge">
<title>5&#45;&gt;0</title>
<path fill="none" stroke="#000000" d="M539.7451,-35.5483C504.6508,-30.3304 441.6673,-18 387,-18 297,-18 297,-18 297,-18 247.2442,-18 190.5994,-28.2143 154.363,-33.9838"/>
<polygon fill="#000000" stroke="#000000" points="153.6018,-30.5598 144.2549,-35.5483 154.6726,-37.4774 153.6018,-30.5598"/>
</g>
<!-- 5&#45;&gt;4 -->
<g id="edge12" class="edge">
<title>5&#45;&gt;4</title>
<path fill="none" stroke="#000000" stroke-dasharray="1,5" d="M546.5987,-48.106C536.9482,-51.9752 525.1189,-55.9537 513.9693,-59.152"/>
<polygon fill="#000000" stroke="#000000" points="512.7441,-55.8574 504.003,-61.8444 514.5697,-62.6152 512.7441,-55.8574"/>
</g>
</g>
</svg>
