<?xml version="1.0" encoding="UTF-8" standalone="no"?>
<!DOCTYPE svg PUBLIC "-//W3C//DTD SVG 1.1//EN"
 "http://www.w3.org/Graphics/SVG/1.1/DTD/svg11.dtd">
<!-- Generated by graphviz version 2.42.4 (0)
 -->
<!-- Title: liste Pages: 1 -->
<svg width="422pt" height="44pt"
 viewBox="0.00 0.00 422.00 44.00" xmlns="http://www.w3.org/2000/svg" xmlns:xlink="http://www.w3.org/1999/xlink">
<g id="graph0" class="graph" transform="scale(1 1) rotate(0) translate(4 40)">
<title>liste</title>
<polygon fill="white" stroke="transparent" points="-4,4 -4,-40 418,-40 418,4 -4,4"/>
<!-- tete -->
<g id="node1" class="node">
<title>tete</title>
<text text-anchor="middle" x="27" y="-14.3" font-family="Courrier" font-size="14.00">tête</text>
</g>
<!-- 0 -->
<g id="node2" class="node">
<title>0</title>
<ellipse fill="none" stroke="black" cx="117" cy="-18" rx="27" ry="18"/>
<text text-anchor="middle" x="117" y="-14.3" font-family="Courrier" font-size="14.00">a</text>
</g>
<!-- tete&#45;&gt;0 -->
<g id="edge1" class="edge">
<title>tete&#45;&gt;0</title>
<path fill="none" stroke="black" d="M54.4,-18C62.39,-18 71.31,-18 79.82,-18"/>
<polygon fill="black" stroke="black" points="79.92,-21.5 89.92,-18 79.92,-14.5 79.92,-21.5"/>
</g>
<!-- 1 -->
<g id="node3" class="node">
<title>1</title>
<ellipse fill="none" stroke="black" cx="207" cy="-18" rx="27" ry="18"/>
<text text-anchor="middle" x="207" y="-14.3" font-family="Courrier" font-size="14.00">b</text>
</g>
<!-- 0&#45;&gt;1 -->
<g id="edge2" class="edge">
<title>0&#45;&gt;1</title>
<path fill="none" stroke="black" d="M144.4,-18C152.39,-18 161.31,-18 169.82,-18"/>
<polygon fill="black" stroke="black" points="169.92,-21.5 179.92,-18 169.92,-14.5 169.92,-21.5"/>
</g>
<!-- 2 -->
<g id="node4" class="node">
<title>2</title>
<ellipse fill="none" stroke="black" cx="297" cy="-18" rx="27" ry="18"/>
<text text-anchor="middle" x="297" y="-14.3" font-family="Courrier" font-size="14.00">c</text>
</g>
<!-- 1&#45;&gt;2 -->
<g id="edge3" class="edge">
<title>1&#45;&gt;2</title>
<path fill="none" stroke="black" d="M234.4,-18C242.39,-18 251.31,-18 259.82,-18"/>
<polygon fill="black" stroke="black" points="259.92,-21.5 269.92,-18 259.92,-14.5 259.92,-21.5"/>
</g>
<!-- null01 -->
<g id="node5" class="node">
<title>null01</title>
<text text-anchor="middle" x="387" y="-14.3" font-family="Courrier" font-size="14.00">null</text>
</g>
<!-- 2&#45;&gt;null01 -->
<g id="edge4" class="edge">
<title>2&#45;&gt;null01</title>
<path fill="none" stroke="black" d="M324.4,-18C332.39,-18 341.31,-18 349.82,-18"/>
<polygon fill="black" stroke="black" points="349.92,-21.5 359.92,-18 349.92,-14.5 349.92,-21.5"/>
</g>
</g>
</svg>
