<?xml version="1.0" encoding="UTF-8" standalone="no"?>
<!DOCTYPE svg PUBLIC "-//W3C//DTD SVG 1.1//EN"
 "http://www.w3.org/Graphics/SVG/1.1/DTD/svg11.dtd">
<!-- Generated by graphviz version 2.40.1 (0)
 -->
<!-- Title: ListeChaineeDouble_test03_avant Pages: 1 -->
<svg width="745pt" height="170pt"
 viewBox="0.00 0.00 745.00 169.50" xmlns="http://www.w3.org/2000/svg" xmlns:xlink="http://www.w3.org/1999/xlink">
<g id="graph0" class="graph" transform="scale(1 1) rotate(0) translate(4 165.5)">
<title>ListeChaineeDouble_test03_avant</title>
<polygon fill="#ffffff" stroke="transparent" points="-4,4 -4,-165.5 741,-165.5 741,4 -4,4"/>
<!-- / -->
<g id="node1" class="node">
<title>/</title>
<polygon fill="#ffffff" stroke="#000000" points="0,-92 0,-161 161,-161 161,-92 0,-92"/>
<text text-anchor="middle" x="80.5" y="-145.8" font-family="Times,serif" font-size="14.00" fill="#000000">ListeChaineeDouble</text>
<polyline fill="none" stroke="#000000" points="0,-138 161,-138 "/>
<text text-anchor="middle" x="47" y="-122.8" font-family="Times,serif" font-size="14.00" fill="#000000">taille</text>
<polyline fill="none" stroke="#000000" points="94,-115 94,-138 "/>
<text text-anchor="middle" x="127.5" y="-122.8" font-family="Times,serif" font-size="14.00" fill="#000000">3</text>
<polyline fill="none" stroke="#000000" points="0,-115 161,-115 "/>
<text text-anchor="middle" x="46" y="-99.8" font-family="Times,serif" font-size="14.00" fill="#000000">tete</text>
<polyline fill="none" stroke="#000000" points="92,-92 92,-115 "/>
<text text-anchor="middle" x="126.5" y="-99.8" font-family="Times,serif" font-size="14.00" fill="#000000"> </text>
</g>
<!-- /tete -->
<g id="node2" class="node">
<title>/tete</title>
<polygon fill="#ffffff" stroke="#000000" points="233,-22.5 233,-114.5 353,-114.5 353,-22.5 233,-22.5"/>
<text text-anchor="middle" x="293" y="-99.3" font-family="Times,serif" font-size="14.00" fill="#000000">MaillonDouble</text>
<polyline fill="none" stroke="#000000" points="233,-91.5 353,-91.5 "/>
<text text-anchor="middle" x="273" y="-76.3" font-family="Times,serif" font-size="14.00" fill="#000000">valeur</text>
<polyline fill="none" stroke="#000000" points="313,-68.5 313,-91.5 "/>
<text text-anchor="middle" x="333" y="-76.3" font-family="Times,serif" font-size="14.00" fill="#000000">j</text>
<polyline fill="none" stroke="#000000" points="233,-68.5 353,-68.5 "/>
<text text-anchor="middle" x="246" y="-53.3" font-family="Times,serif" font-size="14.00" fill="#000000"> </text>
<polyline fill="none" stroke="#000000" points="259,-45.5 259,-68.5 "/>
<text text-anchor="middle" x="306" y="-53.3" font-family="Times,serif" font-size="14.00" fill="#000000">precedent</text>
<polyline fill="none" stroke="#000000" points="233,-45.5 353,-45.5 "/>
<text text-anchor="middle" x="275" y="-30.3" font-family="Times,serif" font-size="14.00" fill="#000000">suivant</text>
<polyline fill="none" stroke="#000000" points="317,-22.5 317,-45.5 "/>
<text text-anchor="middle" x="335" y="-30.3" font-family="Times,serif" font-size="14.00" fill="#000000"> </text>
</g>
<!-- /&#45;&gt;/tete -->
<g id="edge1" class="edge">
<title>/:c&#45;&gt;/tete:_C</title>
<path fill="none" stroke="#000000" d="M134.516,-103.5C150.6667,-103.5 188.5209,-103.5 222.9338,-103.5"/>
<ellipse fill="#000000" stroke="#000000" cx="130.5" cy="-103.5" rx="4" ry="4"/>
<polygon fill="#000000" stroke="#000000" points="223,-107.0001 233,-103.5 223,-100.0001 223,-107.0001"/>
</g>
<!-- /tete/suivant -->
<g id="node4" class="node">
<title>/tete/suivant</title>
<polygon fill="#ffffff" stroke="#000000" points="425,-11.5 425,-103.5 545,-103.5 545,-11.5 425,-11.5"/>
<text text-anchor="middle" x="485" y="-88.3" font-family="Times,serif" font-size="14.00" fill="#000000">MaillonDouble</text>
<polyline fill="none" stroke="#000000" points="425,-80.5 545,-80.5 "/>
<text text-anchor="middle" x="464" y="-65.3" font-family="Times,serif" font-size="14.00" fill="#000000">valeur</text>
<polyline fill="none" stroke="#000000" points="503,-57.5 503,-80.5 "/>
<text text-anchor="middle" x="524" y="-65.3" font-family="Times,serif" font-size="14.00" fill="#000000">n</text>
<polyline fill="none" stroke="#000000" points="425,-57.5 545,-57.5 "/>
<text text-anchor="middle" x="438" y="-42.3" font-family="Times,serif" font-size="14.00" fill="#000000"> </text>
<polyline fill="none" stroke="#000000" points="451,-34.5 451,-57.5 "/>
<text text-anchor="middle" x="498" y="-42.3" font-family="Times,serif" font-size="14.00" fill="#000000">precedent</text>
<polyline fill="none" stroke="#000000" points="425,-34.5 545,-34.5 "/>
<text text-anchor="middle" x="467" y="-19.3" font-family="Times,serif" font-size="14.00" fill="#000000">suivant</text>
<polyline fill="none" stroke="#000000" points="509,-11.5 509,-34.5 "/>
<text text-anchor="middle" x="527" y="-19.3" font-family="Times,serif" font-size="14.00" fill="#000000"> </text>
</g>
<!-- /tete&#45;&gt;/tete/suivant -->
<g id="edge2" class="edge">
<title>/tete:c&#45;&gt;/tete/suivant:_C</title>
<path fill="none" stroke="#000000" d="M341.6594,-37.9346C357.6867,-48.6006 398.4047,-75.6562 416.3266,-87.1756"/>
<ellipse fill="#000000" stroke="#000000" cx="338.3294" cy="-35.7171" rx="4" ry="4"/>
<polygon fill="#000000" stroke="#000000" points="414.6466,-90.2511 425,-92.5 418.3088,-84.2855 414.6466,-90.2511"/>
</g>
<!-- /tete/precedent -->
<g id="node3" class="node">
<title>/tete/precedent</title>
<polygon fill="#ffffff" stroke="#000000" points="617,-.5 617,-92.5 737,-92.5 737,-.5 617,-.5"/>
<text text-anchor="middle" x="677" y="-77.3" font-family="Times,serif" font-size="14.00" fill="#000000">MaillonDouble</text>
<polyline fill="none" stroke="#000000" points="617,-69.5 737,-69.5 "/>
<text text-anchor="middle" x="656" y="-54.3" font-family="Times,serif" font-size="14.00" fill="#000000">valeur</text>
<polyline fill="none" stroke="#000000" points="695,-46.5 695,-69.5 "/>
<text text-anchor="middle" x="716" y="-54.3" font-family="Times,serif" font-size="14.00" fill="#000000">b</text>
<polyline fill="none" stroke="#000000" points="617,-46.5 737,-46.5 "/>
<text text-anchor="middle" x="630" y="-31.3" font-family="Times,serif" font-size="14.00" fill="#000000"> </text>
<polyline fill="none" stroke="#000000" points="643,-23.5 643,-46.5 "/>
<text text-anchor="middle" x="690" y="-31.3" font-family="Times,serif" font-size="14.00" fill="#000000">precedent</text>
<polyline fill="none" stroke="#000000" points="617,-23.5 737,-23.5 "/>
<text text-anchor="middle" x="659" y="-8.3" font-family="Times,serif" font-size="14.00" fill="#000000">suivant</text>
<polyline fill="none" stroke="#000000" points="701,-.5 701,-23.5 "/>
<text text-anchor="middle" x="719" y="-8.3" font-family="Times,serif" font-size="14.00" fill="#000000"> </text>
</g>
<!-- /tete/precedent&#45;&gt;/tete/suivant -->
<g id="edge4" class="edge">
<title>/tete/precedent:c&#45;&gt;/tete/suivant:_C</title>
<path fill="none" stroke="#000000" d="M623.8306,-40.1074C609.9993,-52.4769 576.065,-81.6772 554.8545,-90.1545"/>
<ellipse fill="#000000" stroke="#000000" cx="627.0399" cy="-37.1904" rx="4" ry="4"/>
<polygon fill="#000000" stroke="#000000" points="553.9178,-86.7796 545,-92.5 555.5387,-93.5894 553.9178,-86.7796"/>
</g>
<!-- /tete/suivant&#45;&gt;/tete -->
<g id="edge5" class="edge">
<title>/tete/suivant:c&#45;&gt;/tete:_C</title>
<path fill="none" stroke="#000000" d="M431.8306,-51.1074C417.9993,-63.4769 384.065,-92.6772 362.8545,-101.1545"/>
<ellipse fill="#000000" stroke="#000000" cx="435.0399" cy="-48.1904" rx="4" ry="4"/>
<polygon fill="#000000" stroke="#000000" points="361.9178,-97.7796 353,-103.5 363.5387,-104.5894 361.9178,-97.7796"/>
</g>
<!-- /tete/suivant&#45;&gt;/tete/precedent -->
<g id="edge3" class="edge">
<title>/tete/suivant:c&#45;&gt;/tete/precedent:_C</title>
<path fill="none" stroke="#000000" d="M533.6594,-26.9346C549.6867,-37.6006 590.4047,-64.6562 608.3266,-76.1756"/>
<ellipse fill="#000000" stroke="#000000" cx="530.3294" cy="-24.7171" rx="4" ry="4"/>
<polygon fill="#000000" stroke="#000000" points="606.6466,-79.2511 617,-81.5 610.3088,-73.2855 606.6466,-79.2511"/>
</g>
</g>
</svg>
